<?xml version="1.0" standalone="no"?>
<!DOCTYPE svg PUBLIC "-//W3C//DTD SVG 20010904//EN"
 "http://www.w3.org/TR/2001/REC-SVG-20010904/DTD/svg10.dtd">
<svg version="1.0" xmlns="http://www.w3.org/2000/svg"
 width="206.000000pt" height="188.000000pt" viewBox="0 0 206.000000 188.000000"
 preserveAspectRatio="xMidYMid meet">
<metadata>
Created by potrace 1.16, written by Peter Selinger 2001-2019
</metadata>
<g transform="translate(0.000000,188.000000) scale(0.100000,-0.100000)"
fill="oklch(71.2% 0.194 13.428)" stroke="none">
<path d="M1516 1711 l-45 -88 -83 -13 c-108 -15 -115 -18 -122 -37 -5 -11 14
-36 64 -84 77 -75 77 -72 56 -189 -12 -65 -12 -77 1 -90 12 -13 23 -10 96 28
45 23 89 42 97 42 8 0 52 -19 97 -42 107 -56 111 -53 93 83 l-13 103 67 60
c43 40 66 69 66 82 0 24 -5 26 -123 45 l-78 12 -45 88 c-59 118 -69 118 -128
0z m104 -80 c31 -63 36 -66 118 -76 28 -4 52 -10 52 -14 0 -4 -21 -27 -46 -51
l-46 -45 7 -79 c4 -43 3 -77 -2 -75 -5 2 -34 17 -66 34 l-57 29 -61 -32 c-33
-18 -64 -30 -69 -27 -4 3 -4 22 1 42 18 80 12 105 -36 153 -25 24 -45 47 -45
51 0 4 24 10 53 14 81 10 86 13 117 76 17 32 35 59 40 59 5 0 23 -27 40 -59z"/>
<path d="M1062 1716 c-16 -27 -28 -35 -54 -38 -40 -4 -49 -35 -18 -63 14 -13
20 -30 20 -61 0 -51 11 -60 52 -43 24 10 37 10 65 0 44 -16 59 -4 54 45 -2 26
3 42 19 59 30 32 23 59 -18 65 -23 4 -38 14 -52 38 -25 41 -43 41 -68 -2z"/>
<path d="M663 1722 c-59 -45 -37 -155 32 -162 44 -5 63 1 89 26 76 77 -35 202
-121 136z"/>
<path d="M892 1528 c-5 -7 -13 -23 -16 -35 -8 -26 -23 -29 -50 -8 -31 24 -102
30 -131 11 -14 -9 -25 -23 -25 -31 0 -8 -7 -29 -15 -47 -14 -31 -168 -420
-409 -1033 -59 -148 -111 -280 -116 -293 -14 -32 -12 -62 3 -68 8 -3 126 40
263 95 137 55 404 161 594 236 568 225 594 236 602 248 23 36 -5 129 -65 218
-14 21 -15 28 -5 36 23 19 152 42 258 48 63 3 107 10 111 17 12 18 -1 36 -29
43 -39 8 -214 -12 -312 -36 l-84 -21 -24 28 c-139 171 -302 331 -446 440 -42
31 -76 59 -76 63 0 3 4 22 10 40 13 47 -12 80 -38 49z m67 -195 c25 -20 48
-38 50 -40 2 -1 -10 -16 -28 -32 -62 -58 -29 -161 52 -161 36 0 87 32 87 55 0
30 27 18 83 -39 87 -89 197 -215 197 -226 0 -6 -33 -27 -74 -47 l-75 -37 -53
46 c-104 89 -358 361 -358 383 0 11 61 135 66 135 4 0 28 -17 53 -37z m-249
-4 c0 -33 194 -277 317 -398 35 -35 62 -66 59 -69 -23 -22 -458 147 -496 192
-9 11 1 44 42 150 29 75 59 136 66 136 6 0 12 -5 12 -11z m-93 -359 c77 -43
183 -87 287 -121 90 -29 246 -69 271 -69 15 0 188 -127 194 -143 2 -7 -43 -8
-135 -4 -137 6 -246 22 -367 52 -154 40 -377 129 -377 151 0 17 61 164 67 164
3 0 30 -14 60 -30z m845 -157 c20 -23 64 -101 77 -135 15 -41 -5 -51 -57 -28
-51 23 -172 102 -172 112 0 9 109 67 126 68 6 0 18 -8 26 -17z m-904 -83 c201
-87 399 -134 639 -152 183 -14 184 -7 -7 -82 -128 -51 -146 -53 -295 -31 -201
28 -495 116 -495 147 0 10 60 158 64 158 1 0 44 -18 94 -40z m-28 -240 c88
-29 200 -57 286 -70 99 -15 110 -19 98 -29 -5 -5 -63 -30 -128 -56 l-119 -48
-101 23 c-92 21 -245 66 -255 75 -4 5 48 134 62 152 6 9 20 7 55 -8 26 -11 72
-29 102 -39z m-150 -189 c30 -10 78 -24 105 -31 60 -15 75 -27 49 -36 -10 -4
-86 -33 -168 -65 -81 -32 -152 -57 -156 -54 -5 3 7 42 24 88 46 116 54 130 74
122 9 -3 42 -14 72 -24z"/>
<path d="M1485 1135 c-24 -23 -29 -40 -26 -75 8 -78 112 -105 161 -43 27 35
25 75 -6 112 -34 41 -92 44 -129 6z"/>
<path d="M1663 538 c-15 -29 -35 -54 -43 -55 -110 -14 -118 -26 -62 -87 38
-41 40 -46 31 -82 -19 -85 -4 -99 72 -64 l49 23 49 -23 c64 -30 75 -22 68 48
-6 54 -5 57 33 99 50 53 45 70 -22 79 -55 7 -60 11 -92 69 -31 57 -49 56 -83
-7z m62 -78 c4 -13 18 -23 36 -27 32 -6 36 -17 14 -39 -8 -9 -15 -29 -15 -46
0 -25 -3 -29 -17 -23 -22 9 -41 9 -70 0 -21 -7 -23 -4 -23 28 0 19 -7 40 -15
47 -18 15 -11 30 15 30 11 0 27 11 36 25 20 30 31 32 39 5z"/>
</g>
</svg>
